<svg version="1.1" xmlns="http://www.w3.org/2000/svg" viewBox="0 0 2368.4690179344607 695.178856991588" width="4736.938035868921" height="1390.357713983176">
  <!-- svg-source:excalidraw -->
  
  <defs>
    <style class="style-fonts">
      @font-face {
        font-family: "Virgil";
        src: url("https://excalidraw.com/Virgil.woff2");
      }
      @font-face {
        font-family: "Cascadia";
        src: url("https://excalidraw.com/Cascadia.woff2");
      }
      @font-face {
        font-family: "Assistant";
        src: url("https://excalidraw.com/Assistant-Regular.woff2");
      }
    </style>
    
  </defs>
  <rect x="0" y="0" width="2368.4690179344607" height="695.178856991588" fill="#ffffff"></rect><g stroke-opacity="0.9" fill-opacity="0.9" stroke-linecap="round" transform="translate(10 270.2345948228758) rotate(0 120.57547988379815 85.78568440471645)"><path d="M160.87 5.47 C174.45 7.47, 188.48 14.85, 199.33 21.49 C210.19 28.12, 219.23 36.31, 225.99 45.26 C232.76 54.21, 238.03 64.9, 239.92 75.2 C241.81 85.5, 240.73 96.88, 237.33 107.04 C233.93 117.2, 227.81 127.84, 219.52 136.17 C211.22 144.49, 199.87 151.48, 187.56 156.99 C175.26 162.5, 160.05 166.88, 145.69 169.24 C131.33 171.59, 115.61 172.76, 101.4 171.11 C87.2 169.47, 72.9 164.54, 60.48 159.35 C48.06 154.16, 36 147.88, 26.86 139.97 C17.72 132.06, 9.92 121.66, 5.62 111.89 C1.33 102.12, 0.33 91.8, 1.08 81.33 C1.82 70.87, 4.15 58.53, 10.1 49.1 C16.05 39.67, 26.08 31.96, 36.77 24.77 C47.45 17.57, 61.04 9.98, 74.24 5.93 C87.44 1.89, 100.48 0.48, 115.98 0.52 C131.48 0.55, 157.62 4.39, 167.21 6.16 C176.8 7.94, 174.08 9.64, 173.52 11.18 M68.67 8.24 C80.17 2.75, 96.94 1.13, 111.32 0.2 C125.71 -0.73, 141.44 -0.39, 154.97 2.65 C168.5 5.69, 181.23 12.22, 192.52 18.43 C203.81 24.64, 214.8 31.35, 222.71 39.9 C230.63 48.46, 237.5 59.49, 240.01 69.77 C242.53 80.05, 240.83 91.24, 237.81 101.6 C234.79 111.96, 229.51 122.88, 221.9 131.93 C214.29 140.98, 203.74 149.99, 192.14 155.91 C180.54 161.84, 166.13 165.16, 152.31 167.46 C138.5 169.75, 123.42 170.47, 109.25 169.69 C95.09 168.92, 80.49 167.4, 67.31 162.83 C54.14 158.25, 40.19 150.06, 30.2 142.26 C20.22 134.45, 12.24 125.64, 7.4 116 C2.56 106.35, 1.18 94.69, 1.17 84.4 C1.17 74.1, 2.08 63.76, 7.35 54.23 C12.63 44.7, 22.9 34.92, 32.83 27.22 C42.75 19.52, 60.75 11.1, 66.9 8.03 C73.05 4.97, 68.56 7.21, 69.72 8.82" stroke="#1e1e1e" stroke-width="2" fill="none"></path></g><g stroke-opacity="0.9" fill-opacity="0.9" transform="translate(51.56111238527137 323.5590198852842) rotate(0 95.4539794921875 45)"><text x="0" y="31.536" font-family="Virgil, Segoe UI Emoji" font-size="36px" fill="#1e1e1e" text-anchor="start" style="white-space: pre;" direction="ltr" dominant-baseline="alphabetic">GH Action </text><text x="0" y="76.536" font-family="Virgil, Segoe UI Emoji" font-size="36px" fill="#1e1e1e" text-anchor="start" style="white-space: pre;" direction="ltr" dominant-baseline="alphabetic">runner</text></g><g stroke-opacity="0.9" fill-opacity="0.9" stroke-linecap="round" transform="translate(449.8407145731485 308.6105079024637) rotate(0 210.88653092452387 48.593352553747536)"><path d="M0 0 C150.14 -1.29, 302.02 -2.65, 421.77 0 M0 0 C89.87 0.41, 178.3 -0.12, 421.77 0 M421.77 0 C423.75 22.32, 424.43 41.99, 421.77 97.19 M421.77 0 C421.39 22.1, 422.01 43.63, 421.77 97.19 M421.77 97.19 C255.13 98.55, 86.58 98.24, 0 97.19 M421.77 97.19 C267.58 95.34, 113.56 95.8, 0 97.19 M0 97.19 C0.87 66.67, 1.67 35.76, 0 0 M0 97.19 C1.3 76.81, -0.38 57.34, 0 0" stroke="#1e1e1e" stroke-width="2" fill="none"></path></g><g stroke-opacity="0.9" fill-opacity="0.9" transform="translate(465.83850695258434 335.9840520289508) rotate(0 162.3599395751953 22.5)"><text x="0" y="31.536" font-family="Virgil, Segoe UI Emoji" font-size="36px" fill="#1e1e1e" text-anchor="start" style="white-space: pre;" direction="ltr" dominant-baseline="alphabetic">core-tf-runner-role</text></g><g stroke-linecap="round"><g stroke-opacity="0.9" fill-opacity="0.9" transform="translate(1487.5061104895426 162.3196171538002) rotate(0 66.11618428899351 0)"><path d="M0 0 C44.1 2.15, 91.75 2.78, 132.23 0 M0 0 C50.09 1.16, 102.49 0.69, 132.23 0" stroke="#1e1e1e" stroke-width="2" fill="none"></path></g><g stroke-opacity="0.9" fill-opacity="0.9" transform="translate(1487.5061104895426 162.3196171538002) rotate(0 66.11618428899351 0)"><path d="M130.77 -0.76 L119.27 7.14 L120.5 -5.04 L132.48 1.72" stroke="none" stroke-width="0" fill="#1e1e1e" fill-rule="evenodd"></path><path d="M132.23 0 C126.22 2.98, 122.9 5.72, 118.74 6.56 M132.23 0 C126.35 3.25, 122.27 5.42, 118.74 6.56 M118.74 6.56 C117.58 1.72, 117.75 -2.87, 118.54 -6.12 M118.74 6.56 C119.23 2.64, 118.74 -1.69, 118.54 -6.12 M118.54 -6.12 C124.49 -4.4, 127.43 -2.28, 132.23 0 M118.54 -6.12 C122.17 -4.91, 125 -2.88, 132.23 0 M132.23 0 C132.23 0, 132.23 0, 132.23 0 M132.23 0 C132.23 0, 132.23 0, 132.23 0" stroke="#1e1e1e" stroke-width="2" fill="none"></path></g></g><mask></mask><g stroke-opacity="0.9" fill-opacity="0.9" transform="translate(1648.9452142235236 153.66323382726114) rotate(0 354.7619018554685 22.5)"><text x="0" y="31.536" font-family="Virgil, Segoe UI Emoji" font-size="36px" fill="#1e1e1e" text-anchor="start" style="white-space: pre;" direction="ltr" dominant-baseline="alphabetic">action */* inside security_aws_account</text></g><g stroke-linecap="round"><g stroke-opacity="0.9" fill-opacity="0.9" transform="translate(252.15222620172744 343.50892658748126) rotate(0 99.27875070256073 0.2742158250657667)"><path d="M0 0 C73.14 -1.71, 148.48 1.21, 198.56 0.55 M0 0 C48.96 -0.16, 98.56 -0.32, 198.56 0.55" stroke="#1e1e1e" stroke-width="2" fill="none"></path></g><g stroke-opacity="0.9" fill-opacity="0.9" transform="translate(252.15222620172744 343.50892658748126) rotate(0 99.27875070256073 0.2742158250657667)"><path d="M198.57 2.26 L186.92 7.02 L183.27 -4.18 L197.37 0.49" stroke="none" stroke-width="0" fill="#1e1e1e" fill-rule="evenodd"></path><path d="M198.56 0.55 C192.92 1.45, 188.91 5.81, 184.92 6.79 M198.56 0.55 C194.79 2.56, 191.47 3.89, 184.92 6.79 M184.92 6.79 C185.3 4.62, 183.99 1.85, 185.01 -5.88 M184.92 6.79 C184.44 3.27, 184.82 0.84, 185.01 -5.88 M185.01 -5.88 C190.8 -3.73, 194.13 -2.11, 198.56 0.55 M185.01 -5.88 C189.23 -3.27, 193.35 -2.01, 198.56 0.55 M198.56 0.55 C198.56 0.55, 198.56 0.55, 198.56 0.55 M198.56 0.55 C198.56 0.55, 198.56 0.55, 198.56 0.55" stroke="#1e1e1e" stroke-width="2" fill="none"></path></g></g><mask></mask><g stroke-linecap="round"><g stroke-opacity="0.9" fill-opacity="0.9" transform="translate(1484.6961168746766 124.10982090033576) rotate(0 84.49155424592004 -33.779947759203424)"><path d="M0.14 0.21 C15.31 -12.96, 62.45 -81.05, 90.75 -78.87 C119.05 -76.68, 156.92 -1.86, 169.96 13.33 M-1.24 -0.72 C13.86 -14.24, 61.69 -82.6, 90.18 -80.54 C118.67 -78.49, 156.54 -4.07, 169.71 11.6" stroke="#1e1e1e" stroke-width="2" fill="none"></path></g><g stroke-opacity="0.9" fill-opacity="0.9" transform="translate(1484.6961168746766 124.10982090033576) rotate(0 84.49155424592004 -33.779947759203424)"><path d="M169.26 12.38 L158.5 4.64 L168.44 -4.1 L170.9 10.64" stroke="none" stroke-width="0" fill="#1e1e1e" fill-rule="evenodd"></path><path d="M169.71 11.6 C166.41 10.35, 163.65 8.51, 156.9 3.8 M169.71 11.6 C164.41 9.15, 159.34 5.59, 156.9 3.8 M156.9 3.8 C161.1 0.02, 165.98 -2.08, 167.45 -3.23 M156.9 3.8 C161.26 0.32, 164.9 -1.54, 167.45 -3.23 M167.45 -3.23 C167.55 1.38, 169.24 6.97, 169.71 11.6 M167.45 -3.23 C167.58 2.51, 169.61 7.83, 169.71 11.6 M169.71 11.6 C169.71 11.6, 169.71 11.6, 169.71 11.6 M169.71 11.6 C169.71 11.6, 169.71 11.6, 169.71 11.6" stroke="#1e1e1e" stroke-width="2" fill="none"></path></g></g><mask></mask><g stroke-opacity="0.9" fill-opacity="0.9" transform="translate(1508.4918642238508 10) rotate(0 71.88997650146484 17.5)"><text x="0" y="24.528" font-family="Virgil, Segoe UI Emoji" font-size="28px" fill="#1e1e1e" text-anchor="start" style="white-space: pre;" direction="ltr" dominant-baseline="alphabetic">IAM Policy</text></g><g stroke-linecap="round"><g stroke-opacity="0.9" fill-opacity="0.9" transform="translate(450.70505539869737 417.2251394931591) rotate(0 -113.11354539143986 42.79305330344505)"><path d="M-0.07 0.36 C-25.37 15.06, -113.34 88.7, -150.92 88 C-188.49 87.3, -213.14 11.18, -225.53 -3.82 M-1.57 -0.5 C-26.99 14.41, -113.84 89.85, -151.23 89.41 C-188.63 88.97, -213.73 12.49, -225.93 -3.12" stroke="#1e1e1e" stroke-width="2" fill="none"></path></g><g stroke-opacity="0.9" fill-opacity="0.9" transform="translate(450.70505539869737 417.2251394931591) rotate(0 -113.11354539143986 42.79305330344505)"><path d="M-227.25 -4.28 L-215.09 4.09 L-226.68 12.58 L-226.79 -2.89" stroke="none" stroke-width="0" fill="#1e1e1e" fill-rule="evenodd"></path><path d="M-225.93 -3.12 C-221.03 1.71, -217.31 4.41, -213.9 5.84 M-225.93 -3.12 C-224.11 -1.02, -220.61 -0.03, -213.9 5.84 M-213.9 5.84 C-217.43 6.45, -221.27 9.31, -225.05 11.86 M-213.9 5.84 C-218.21 7.59, -221.7 9.97, -225.05 11.86 M-225.05 11.86 C-225.54 8.16, -225.31 0.75, -225.93 -3.12 M-225.05 11.86 C-226 5.65, -225.74 -0.77, -225.93 -3.12 M-225.93 -3.12 C-225.93 -3.12, -225.93 -3.12, -225.93 -3.12 M-225.93 -3.12 C-225.93 -3.12, -225.93 -3.12, -225.93 -3.12" stroke="#1e1e1e" stroke-width="2" fill="none"></path></g></g><mask></mask><g stroke-opacity="0.9" fill-opacity="0.9" transform="translate(175.1889878395009 469.793382756332) rotate(0 79.92594909667969 35)"><text x="0" y="24.528" font-family="Virgil, Segoe UI Emoji" font-size="28px" fill="#1e1e1e" text-anchor="start" style="white-space: pre;" direction="ltr" dominant-baseline="alphabetic">Trust </text><text x="0" y="59.528" font-family="Virgil, Segoe UI Emoji" font-size="28px" fill="#1e1e1e" text-anchor="start" style="white-space: pre;" direction="ltr" dominant-baseline="alphabetic">Relationship</text></g><g stroke-opacity="0.9" fill-opacity="0.9" stroke-linecap="round" transform="translate(1047.839433855463 304.55917037689505) rotate(0 210.88653092452387 48.593352553747536)"><path d="M0 0 C142.39 1.71, 286.44 2.77, 421.77 0 M0 0 C144.37 -0.26, 288.33 -0.01, 421.77 0 M421.77 0 C421.23 31.98, 421.17 67.88, 421.77 97.19 M421.77 0 C421.84 25.18, 423.12 49.93, 421.77 97.19 M421.77 97.19 C288.68 96.46, 157.73 95.61, 0 97.19 M421.77 97.19 C303.85 96.96, 186.31 97.18, 0 97.19 M0 97.19 C-1.17 61.93, 1.16 24.82, 0 0 M0 97.19 C-1.06 65.09, 0.74 31.81, 0 0" stroke="#1e1e1e" stroke-width="2" fill="none"></path></g><g stroke-opacity="0.9" fill-opacity="0.9" transform="translate(1063.837226234899 331.93271450338216) rotate(0 162.5939178466797 22.5)"><text x="0" y="31.536" font-family="Virgil, Segoe UI Emoji" font-size="36px" fill="#1e1e1e" text-anchor="start" style="white-space: pre;" direction="ltr" dominant-baseline="alphabetic">prod-tf-runner-role</text></g><g stroke-opacity="0.9" fill-opacity="0.9" stroke-linecap="round" transform="translate(1059.1422136033502 559.8204541685118) rotate(0 210.88653092452387 48.593352553747536)"><path d="M0 0 C155.22 -1.95, 310.96 -1.94, 421.77 0 M0 0 C126.59 0.79, 253.48 0.31, 421.77 0 M421.77 0 C423.62 37.98, 420.35 75.26, 421.77 97.19 M421.77 0 C421.91 24.16, 421.8 49.95, 421.77 97.19 M421.77 97.19 C273.49 98.58, 125.63 98.44, 0 97.19 M421.77 97.19 C329.27 95.98, 237.32 95.77, 0 97.19 M0 97.19 C-1.46 77.81, -1.48 58.19, 0 0 M0 97.19 C-1.08 65.36, 0.1 32.66, 0 0" stroke="#1e1e1e" stroke-width="2" fill="none"></path></g><g stroke-opacity="0.9" fill-opacity="0.9" transform="translate(1075.140005982786 587.1939982949989) rotate(0 155.26792907714844 22.5)"><text x="0" y="31.536" font-family="Virgil, Segoe UI Emoji" font-size="36px" fill="#1e1e1e" text-anchor="start" style="white-space: pre;" direction="ltr" dominant-baseline="alphabetic">dev-tf-runner-role</text></g><g stroke-opacity="0.9" fill-opacity="0.9" stroke-linecap="round" transform="translate(1057.811158887865 86.4227917096141) rotate(0 210.88653092452387 48.593352553747536)"><path d="M0 0 C113.32 0.07, 227.34 -1.23, 421.77 0 M0 0 C162.84 -2.04, 324.92 -2.15, 421.77 0 M421.77 0 C419.5 26.72, 420.82 57.45, 421.77 97.19 M421.77 0 C422.05 19.81, 421.72 38.3, 421.77 97.19 M421.77 97.19 C299.22 98.47, 175.78 97.78, 0 97.19 M421.77 97.19 C256.75 96.42, 91.48 96.53, 0 97.19 M0 97.19 C0.31 65.23, 1.2 34.02, 0 0 M0 97.19 C-0.35 75.51, -0.18 53.56, 0 0" stroke="#1e1e1e" stroke-width="2" fill="none"></path></g><g stroke-opacity="0.9" fill-opacity="0.9" transform="translate(1073.808951267301 113.7963358361012) rotate(0 194.93992614746094 22.5)"><text x="0" y="31.536" font-family="Virgil, Segoe UI Emoji" font-size="36px" fill="#1e1e1e" text-anchor="start" style="white-space: pre;" direction="ltr" dominant-baseline="alphabetic">security-tf-runner-role</text></g><g stroke-linecap="round"><g stroke-opacity="0.9" fill-opacity="0.9" transform="translate(869.9573198543994 365.8758400639672) rotate(0 94.26999279088704 -113.28785648840858)"><path d="M0 0 C45.35 -56.8, 92.55 -111.37, 188.54 -226.58 M0 0 C53.14 -64.55, 107.67 -130.16, 188.54 -226.58" stroke="#1e1e1e" stroke-width="2" fill="none"></path></g><g stroke-opacity="0.9" fill-opacity="0.9" transform="translate(869.9573198543994 365.8758400639672) rotate(0 94.26999279088704 -113.28785648840858)"><path d="M188.26 -227.53 L184.81 -212.22 L175.52 -221.19 L189.8 -227.76" stroke="none" stroke-width="0" fill="#1e1e1e" fill-rule="evenodd"></path><path d="M188.54 -226.58 C186.58 -223.35, 186.37 -218.48, 184.67 -212.08 M188.54 -226.58 C187.53 -222.33, 186.32 -218.11, 184.67 -212.08 M184.67 -212.08 C181.33 -215.66, 179.76 -217.38, 174.95 -220.22 M184.67 -212.08 C181.82 -214.76, 178.32 -216.35, 174.95 -220.22 M174.95 -220.22 C180 -223.5, 185.28 -223.73, 188.54 -226.58 M174.95 -220.22 C180.33 -222.59, 184.49 -224.4, 188.54 -226.58 M188.54 -226.58 C188.54 -226.58, 188.54 -226.58, 188.54 -226.58 M188.54 -226.58 C188.54 -226.58, 188.54 -226.58, 188.54 -226.58" stroke="#1e1e1e" stroke-width="2" fill="none"></path></g></g><mask></mask><g stroke-linecap="round"><g stroke-opacity="0.9" fill-opacity="0.9" transform="translate(872.776023957782 369.9473015466283) rotate(0 86.88487618668842 -1.4457043863567378)"><path d="M0 0 C65.7 -1.87, 128.63 -3.29, 173.77 -2.89 M0 0 C36.6 0.58, 71.89 0.6, 173.77 -2.89" stroke="#1e1e1e" stroke-width="2" fill="none"></path></g><g stroke-opacity="0.9" fill-opacity="0.9" transform="translate(872.776023957782 369.9473015466283) rotate(0 86.88487618668842 -1.4457043863567378)"><path d="M172.14 -3.42 L161.54 2.89 L159.44 -6.87 L173.92 -1.25" stroke="none" stroke-width="0" fill="#1e1e1e" fill-rule="evenodd"></path><path d="M173.77 -2.89 C169.85 0.22, 163.88 2.44, 160.37 3.85 M173.77 -2.89 C171.58 -1.42, 168.49 0.43, 160.37 3.85 M160.37 3.85 C160.96 0.84, 158.99 -3.41, 159.99 -8.82 M160.37 3.85 C160.78 -0.64, 159.83 -5.02, 159.99 -8.82 M159.99 -8.82 C165 -8.48, 167.21 -5.75, 173.77 -2.89 M159.99 -8.82 C164.4 -7.15, 170.7 -4.12, 173.77 -2.89 M173.77 -2.89 C173.77 -2.89, 173.77 -2.89, 173.77 -2.89 M173.77 -2.89 C173.77 -2.89, 173.77 -2.89, 173.77 -2.89" stroke="#1e1e1e" stroke-width="2" fill="none"></path></g></g><mask></mask><g stroke-linecap="round"><g stroke-opacity="0.9" fill-opacity="0.9" transform="translate(874.8564960340873 384.1062997947083) rotate(0 91.50721535622301 106.45171228403706)"><path d="M0 0 C36.98 44.97, 73.14 88.06, 183.01 212.9 M0 0 C49.33 59.02, 99.02 116.52, 183.01 212.9" stroke="#1e1e1e" stroke-width="2" fill="none"></path></g><g stroke-opacity="0.9" fill-opacity="0.9" transform="translate(874.8564960340873 384.1062997947083) rotate(0 91.50721535622301 106.45171228403706)"><path d="M184.29 213.48 L169.7 208.43 L178.87 197.52 L183.03 213.04" stroke="none" stroke-width="0" fill="#1e1e1e" fill-rule="evenodd"></path><path d="M183.01 212.9 C180.81 211.15, 176.34 208.99, 169.31 206.8 M183.01 212.9 C179.82 211.5, 175.65 209.05, 169.31 206.8 M169.31 206.8 C173.71 203.24, 176.28 199.67, 178.88 198.49 M169.31 206.8 C172.21 204.25, 174.78 202.59, 178.88 198.49 M178.88 198.49 C180.52 203.77, 181.05 208.33, 183.01 212.9 M178.88 198.49 C180.18 204.01, 182.16 209.13, 183.01 212.9 M183.01 212.9 C183.01 212.9, 183.01 212.9, 183.01 212.9 M183.01 212.9 C183.01 212.9, 183.01 212.9, 183.01 212.9" stroke="#1e1e1e" stroke-width="2" fill="none"></path></g></g><mask></mask><g stroke-linecap="round"><g stroke-opacity="0.9" fill-opacity="0.9" transform="translate(1480.076181496228 383.73645549904177) rotate(0 66.11618428899351 0)"><path d="M0 0 C31.47 1.4, 65.99 2.11, 132.23 0 M0 0 C50.08 -0.23, 102.02 1.02, 132.23 0" stroke="#1e1e1e" stroke-width="2" fill="none"></path></g><g stroke-opacity="0.9" fill-opacity="0.9" transform="translate(1480.076181496228 383.73645549904177) rotate(0 66.11618428899351 0)"><path d="M133.45 1.84 L119.88 7.71 L118.31 -7.32 L134.16 1.15" stroke="none" stroke-width="0" fill="#1e1e1e" fill-rule="evenodd"></path><path d="M132.23 0 C128.51 1.75, 127.07 3.86, 118.72 6.51 M132.23 0 C126.45 1.9, 122.04 5.35, 118.72 6.51 M118.72 6.51 C118.3 3.32, 119.36 -2.56, 118.56 -6.17 M118.72 6.51 C118.93 2.31, 118.23 -2.63, 118.56 -6.17 M118.56 -6.17 C122.17 -5.34, 126.49 -4.1, 132.23 0 M118.56 -6.17 C121.88 -5.35, 123.79 -3.61, 132.23 0 M132.23 0 C132.23 0, 132.23 0, 132.23 0 M132.23 0 C132.23 0, 132.23 0, 132.23 0" stroke="#1e1e1e" stroke-width="2" fill="none"></path></g></g><mask></mask><g stroke-opacity="0.9" fill-opacity="0.9" transform="translate(1641.515285230209 375.0800721725027) rotate(0 322.4158935546875 22.5)"><text x="0" y="31.536" font-family="Virgil, Segoe UI Emoji" font-size="36px" fill="#1e1e1e" text-anchor="start" style="white-space: pre;" direction="ltr" dominant-baseline="alphabetic">action */* inside prod_aws_account</text></g><g stroke-linecap="round"><g stroke-opacity="0.9" fill-opacity="0.9" transform="translate(1477.2661878813633 345.52665924558096) rotate(0 84.49155424592004 -33.779947759203424)"><path d="M0.64 1.02 C15.7 -12.53, 62.68 -81.88, 90.57 -80.17 C118.47 -78.46, 154.89 -4.22, 168.01 11.28 M-0.48 0.51 C14.45 -12.36, 61.43 -80.81, 89.91 -78.87 C118.39 -76.94, 157.1 -2.77, 170.39 12.13" stroke="#1e1e1e" stroke-width="2" fill="none"></path></g><g stroke-opacity="0.9" fill-opacity="0.9" transform="translate(1477.2661878813633 345.52665924558096) rotate(0 84.49155424592004 -33.779947759203424)"><path d="M170.14 10.98 L159.38 5.7 L167.47 -1.24 L172.19 13.78" stroke="none" stroke-width="0" fill="#1e1e1e" fill-rule="evenodd"></path><path d="M170.39 12.13 C167.47 10.46, 161.51 6.15, 157.45 4.55 M170.39 12.13 C167.76 10.28, 163.77 8.53, 157.45 4.55 M157.45 4.55 C162.42 2.75, 165.15 -0.32, 167.88 -2.66 M157.45 4.55 C161.15 2.2, 165.68 -0.96, 167.88 -2.66 M167.88 -2.66 C167.26 0.45, 170.4 5.97, 170.39 12.13 M167.88 -2.66 C168.07 0.43, 169.68 4.71, 170.39 12.13 M170.39 12.13 C170.39 12.13, 170.39 12.13, 170.39 12.13 M170.39 12.13 C170.39 12.13, 170.39 12.13, 170.39 12.13" stroke="#1e1e1e" stroke-width="2" fill="none"></path></g></g><mask></mask><g stroke-opacity="0.9" fill-opacity="0.9" transform="translate(1501.0619352305366 231.41683834524156) rotate(0 71.88997650146484 17.5)"><text x="0" y="24.528" font-family="Virgil, Segoe UI Emoji" font-size="28px" fill="#1e1e1e" text-anchor="start" style="white-space: pre;" direction="ltr" dominant-baseline="alphabetic">IAM Policy</text></g><g stroke-linecap="round"><g stroke-opacity="0.9" fill-opacity="0.9" transform="translate(1497.2890111710103 648.835240318127) rotate(0 66.11618428899351 0)"><path d="M0 0 C42.5 -0.36, 80.87 -2.56, 132.23 0 M0 0 C26.65 -0.6, 54.87 -0.68, 132.23 0" stroke="#1e1e1e" stroke-width="2" fill="none"></path></g><g stroke-opacity="0.9" fill-opacity="0.9" transform="translate(1497.2890111710103 648.835240318127) rotate(0 66.11618428899351 0)"><path d="M133.81 0.97 L118.94 7.17 L120.31 -4.74 L131.59 1.72" stroke="none" stroke-width="0" fill="#1e1e1e" fill-rule="evenodd"></path><path d="M132.23 0 C129.09 2.55, 122.9 2.84, 118.59 6.24 M132.23 0 C128.72 0.63, 126.39 1.87, 118.59 6.24 M118.59 6.24 C118.26 2.37, 119.6 -3.61, 118.68 -6.44 M118.59 6.24 C119.11 2.94, 118.15 0.36, 118.68 -6.44 M118.68 -6.44 C124.31 -5.2, 127.99 -0.49, 132.23 0 M118.68 -6.44 C123.5 -3.55, 129.68 -1.72, 132.23 0 M132.23 0 C132.23 0, 132.23 0, 132.23 0 M132.23 0 C132.23 0, 132.23 0, 132.23 0" stroke="#1e1e1e" stroke-width="2" fill="none"></path></g></g><mask></mask><g stroke-opacity="0.9" fill-opacity="0.9" transform="translate(1658.7281149049913 640.178856991588) rotate(0 315.08990478515625 22.5)"><text x="0" y="31.536" font-family="Virgil, Segoe UI Emoji" font-size="36px" fill="#1e1e1e" text-anchor="start" style="white-space: pre;" direction="ltr" dominant-baseline="alphabetic">action */* inside dev_aws_account</text></g><g stroke-linecap="round"><g stroke-opacity="0.9" fill-opacity="0.9" transform="translate(1494.4790175561457 610.6254440646662) rotate(0 84.49155424592004 -33.779947759203424)"><path d="M-0.91 -1.1 C13.99 -14.32, 61.68 -81.99, 89.82 -79.95 C117.95 -77.91, 154.77 -4.03, 167.92 11.13 M0.81 0.94 C15.5 -12.04, 60.51 -80.36, 88.75 -78.53 C116.99 -76.7, 156.91 -3.1, 170.26 11.91" stroke="#1e1e1e" stroke-width="2" fill="none"></path></g><g stroke-opacity="0.9" fill-opacity="0.9" transform="translate(1494.4790175561457 610.6254440646662) rotate(0 84.49155424592004 -33.779947759203424)"><path d="M171.89 13.61 L156.61 6.16 L167.77 -3.99 L171.34 12.6" stroke="none" stroke-width="0" fill="#1e1e1e" fill-rule="evenodd"></path><path d="M170.26 11.91 C164.58 9.04, 161.32 5.49, 157.26 4.44 M170.26 11.91 C168.22 9.53, 164.03 8.3, 157.26 4.44 M157.26 4.44 C160.4 2.36, 166.31 -0.13, 167.62 -2.86 M157.26 4.44 C160.37 3.09, 162.26 1.04, 167.62 -2.86 M167.62 -2.86 C169.33 0.87, 169.44 2.67, 170.26 11.91 M167.62 -2.86 C168.62 2.47, 169.72 7.49, 170.26 11.91 M170.26 11.91 C170.26 11.91, 170.26 11.91, 170.26 11.91 M170.26 11.91 C170.26 11.91, 170.26 11.91, 170.26 11.91" stroke="#1e1e1e" stroke-width="2" fill="none"></path></g></g><mask></mask><g stroke-opacity="0.9" fill-opacity="0.9" transform="translate(1518.274764905319 493.45005928919636) rotate(0 71.88997650146484 17.5)"><text x="0" y="24.528" font-family="Virgil, Segoe UI Emoji" font-size="28px" fill="#1e1e1e" text-anchor="start" style="white-space: pre;" direction="ltr" dominant-baseline="alphabetic">IAM Policy</text></g></svg>