<svg version="1.1" xmlns="http://www.w3.org/2000/svg" viewBox="0 0 1625.5572497450553 355.42583829415526" width="3251.1144994901106" height="710.8516765883105">
  <!-- svg-source:excalidraw -->
  
  <defs>
    <style class="style-fonts">
      @font-face {
        font-family: "Virgil";
        src: url("https://excalidraw.com/Virgil.woff2");
      }
      @font-face {
        font-family: "Cascadia";
        src: url("https://excalidraw.com/Cascadia.woff2");
      }
      @font-face {
        font-family: "Assistant";
        src: url("https://excalidraw.com/Assistant-Regular.woff2");
      }
    </style>
    
  </defs>
  <rect x="0" y="0" width="1625.5572497450553" height="355.42583829415526" fill="#ffffff"></rect><g stroke-opacity="0.9" fill-opacity="0.9" stroke-linecap="round" transform="translate(10 75.86705036069907) rotate(0 120.57547988379815 85.78568440471645)"><path d="M160.87 5.47 C174.45 7.47, 188.48 14.85, 199.33 21.49 C210.19 28.12, 219.23 36.31, 225.99 45.26 C232.76 54.21, 238.03 64.9, 239.92 75.2 C241.81 85.5, 240.73 96.88, 237.33 107.04 C233.93 117.2, 227.81 127.84, 219.52 136.17 C211.22 144.49, 199.87 151.48, 187.56 156.99 C175.26 162.5, 160.05 166.88, 145.69 169.24 C131.33 171.59, 115.61 172.76, 101.4 171.11 C87.2 169.47, 72.9 164.54, 60.48 159.35 C48.06 154.16, 36 147.88, 26.86 139.97 C17.72 132.06, 9.92 121.66, 5.62 111.89 C1.33 102.12, 0.33 91.8, 1.08 81.33 C1.82 70.87, 4.15 58.53, 10.1 49.1 C16.05 39.67, 26.08 31.96, 36.77 24.77 C47.45 17.57, 61.04 9.98, 74.24 5.93 C87.44 1.89, 100.48 0.48, 115.98 0.52 C131.48 0.55, 157.62 4.39, 167.21 6.16 C176.8 7.94, 174.08 9.64, 173.52 11.18 M68.67 8.24 C80.17 2.75, 96.94 1.13, 111.32 0.2 C125.71 -0.73, 141.44 -0.39, 154.97 2.65 C168.5 5.69, 181.23 12.22, 192.52 18.43 C203.81 24.64, 214.8 31.35, 222.71 39.9 C230.63 48.46, 237.5 59.49, 240.01 69.77 C242.53 80.05, 240.83 91.24, 237.81 101.6 C234.79 111.96, 229.51 122.88, 221.9 131.93 C214.29 140.98, 203.74 149.99, 192.14 155.91 C180.54 161.84, 166.13 165.16, 152.31 167.46 C138.5 169.75, 123.42 170.47, 109.25 169.69 C95.09 168.92, 80.49 167.4, 67.31 162.83 C54.14 158.25, 40.19 150.06, 30.2 142.26 C20.22 134.45, 12.24 125.64, 7.4 116 C2.56 106.35, 1.18 94.69, 1.17 84.4 C1.17 74.1, 2.08 63.76, 7.35 54.23 C12.63 44.7, 22.9 34.92, 32.83 27.22 C42.75 19.52, 60.75 11.1, 66.9 8.03 C73.05 4.97, 68.56 7.21, 69.72 8.82" stroke="#1e1e1e" stroke-width="2" fill="none"></path></g><g stroke-opacity="0.9" fill-opacity="0.9" transform="translate(51.56111238527137 129.19147542310748) rotate(0 95.4539794921875 45)"><text x="0" y="31.536" font-family="Virgil, Segoe UI Emoji" font-size="36px" fill="#1e1e1e" text-anchor="start" style="white-space: pre;" direction="ltr" dominant-baseline="alphabetic">GH Action </text><text x="0" y="76.536" font-family="Virgil, Segoe UI Emoji" font-size="36px" fill="#1e1e1e" text-anchor="start" style="white-space: pre;" direction="ltr" dominant-baseline="alphabetic">runner</text></g><g stroke-opacity="0.9" fill-opacity="0.9" stroke-linecap="round" transform="translate(449.8407145731485 114.24296344028699) rotate(0 210.88653092452387 48.593352553747536)"><path d="M0 0 C150.14 -1.29, 302.02 -2.65, 421.77 0 M0 0 C89.87 0.41, 178.3 -0.12, 421.77 0 M421.77 0 C423.75 22.32, 424.43 41.99, 421.77 97.19 M421.77 0 C421.39 22.1, 422.01 43.63, 421.77 97.19 M421.77 97.19 C255.13 98.55, 86.58 98.24, 0 97.19 M421.77 97.19 C267.58 95.34, 113.56 95.8, 0 97.19 M0 97.19 C0.87 66.67, 1.67 35.76, 0 0 M0 97.19 C1.3 76.81, -0.38 57.34, 0 0" stroke="#1e1e1e" stroke-width="2" fill="none"></path></g><g stroke-opacity="0.9" fill-opacity="0.9" transform="translate(465.83850695258434 141.6165075667741) rotate(0 162.3599395751953 22.5)"><text x="0" y="31.536" font-family="Virgil, Segoe UI Emoji" font-size="36px" fill="#1e1e1e" text-anchor="start" style="white-space: pre;" direction="ltr" dominant-baseline="alphabetic">core-tf-runner-role</text></g><g stroke-linecap="round"><g stroke-opacity="0.9" fill-opacity="0.9" transform="translate(882.7263003079493 162.3196171538002) rotate(0 66.11618428899351 0)"><path d="M0 0 C44.1 2.15, 91.75 2.78, 132.23 0 M0 0 C50.09 1.16, 102.49 0.69, 132.23 0" stroke="#1e1e1e" stroke-width="2" fill="none"></path></g><g stroke-opacity="0.9" fill-opacity="0.9" transform="translate(882.7263003079493 162.3196171538002) rotate(0 66.11618428899351 0)"><path d="M130.77 -0.76 L119.27 7.14 L120.5 -5.04 L132.48 1.72" stroke="none" stroke-width="0" fill="#1e1e1e" fill-rule="evenodd"></path><path d="M132.23 0 C126.22 2.98, 122.9 5.72, 118.74 6.56 M132.23 0 C126.35 3.25, 122.27 5.42, 118.74 6.56 M118.74 6.56 C117.58 1.72, 117.75 -2.87, 118.54 -6.12 M118.74 6.56 C119.23 2.64, 118.74 -1.69, 118.54 -6.12 M118.54 -6.12 C124.49 -4.4, 127.43 -2.28, 132.23 0 M118.54 -6.12 C122.17 -4.91, 125 -2.88, 132.23 0 M132.23 0 C132.23 0, 132.23 0, 132.23 0 M132.23 0 C132.23 0, 132.23 0, 132.23 0" stroke="#1e1e1e" stroke-width="2" fill="none"></path></g></g><mask></mask><g stroke-opacity="0.9" fill-opacity="0.9" transform="translate(1044.1654040419303 153.66323382726114) rotate(0 285.6959228515625 22.5)"><text x="0" y="31.536" font-family="Virgil, Segoe UI Emoji" font-size="36px" fill="#1e1e1e" text-anchor="start" style="white-space: pre;" direction="ltr" dominant-baseline="alphabetic">action */* on your AWS Account</text></g><g stroke-linecap="round"><g stroke-opacity="0.9" fill-opacity="0.9" transform="translate(252.15222620172744 149.14138212530452) rotate(0 99.27875070256073 0.2742158250657667)"><path d="M0 0 C73.14 -1.71, 148.48 1.21, 198.56 0.55 M0 0 C48.96 -0.16, 98.56 -0.32, 198.56 0.55" stroke="#1e1e1e" stroke-width="2" fill="none"></path></g><g stroke-opacity="0.9" fill-opacity="0.9" transform="translate(252.15222620172744 149.14138212530452) rotate(0 99.27875070256073 0.2742158250657667)"><path d="M198.57 2.26 L186.92 7.02 L183.27 -4.18 L197.37 0.49" stroke="none" stroke-width="0" fill="#1e1e1e" fill-rule="evenodd"></path><path d="M198.56 0.55 C192.92 1.45, 188.91 5.81, 184.92 6.79 M198.56 0.55 C194.79 2.56, 191.47 3.89, 184.92 6.79 M184.92 6.79 C185.3 4.62, 183.99 1.85, 185.01 -5.88 M184.92 6.79 C184.44 3.27, 184.82 0.84, 185.01 -5.88 M185.01 -5.88 C190.8 -3.73, 194.13 -2.11, 198.56 0.55 M185.01 -5.88 C189.23 -3.27, 193.35 -2.01, 198.56 0.55 M198.56 0.55 C198.56 0.55, 198.56 0.55, 198.56 0.55 M198.56 0.55 C198.56 0.55, 198.56 0.55, 198.56 0.55" stroke="#1e1e1e" stroke-width="2" fill="none"></path></g></g><mask></mask><g stroke-linecap="round"><g stroke-opacity="0.9" fill-opacity="0.9" transform="translate(879.9163066930832 113.92228506266474) rotate(0 84.49155424592004 -23.592411921532403)"><path d="M0.14 10.4 C15.31 -2.77, 62.45 -70.87, 90.75 -68.68 C119.05 -66.49, 156.92 8.32, 169.96 23.52 M-1.24 9.46 C13.86 -4.05, 61.69 -72.41, 90.18 -70.36 C118.67 -68.3, 156.54 6.12, 169.71 21.79" stroke="#1e1e1e" stroke-width="2" fill="none"></path></g><g stroke-opacity="0.9" fill-opacity="0.9" transform="translate(879.9163066930832 113.92228506266474) rotate(0 84.49155424592004 -23.592411921532403)"><path d="M169.26 22.57 L158.5 14.82 L168.44 6.09 L170.9 20.83" stroke="none" stroke-width="0" fill="#1e1e1e" fill-rule="evenodd"></path><path d="M169.71 21.79 C166.41 20.53, 163.65 18.7, 156.9 13.99 M169.71 21.79 C164.41 19.33, 159.34 15.77, 156.9 13.99 M156.9 13.99 C161.1 10.21, 165.98 8.11, 167.45 6.96 M156.9 13.99 C161.26 10.5, 164.9 8.65, 167.45 6.96 M167.45 6.96 C167.55 11.57, 169.24 17.16, 169.71 21.79 M167.45 6.96 C167.58 12.7, 169.61 18.01, 169.71 21.79 M169.71 21.79 C169.71 21.79, 169.71 21.79, 169.71 21.79 M169.71 21.79 C169.71 21.79, 169.71 21.79, 169.71 21.79" stroke="#1e1e1e" stroke-width="2" fill="none"></path></g></g><mask></mask><g stroke-opacity="0.9" fill-opacity="0.9" transform="translate(903.7120540422575 10) rotate(0 71.88997650146484 17.5)"><text x="0" y="24.528" font-family="Virgil, Segoe UI Emoji" font-size="28px" fill="#1e1e1e" text-anchor="start" style="white-space: pre;" direction="ltr" dominant-baseline="alphabetic">IAM Policy</text></g><g stroke-linecap="round"><g stroke-opacity="0.9" fill-opacity="0.9" transform="translate(450.70505539869737 222.85759503098234) rotate(0 -113.11354539143986 42.79305330344505)"><path d="M-0.07 0.36 C-25.37 15.06, -113.34 88.7, -150.92 88 C-188.49 87.3, -213.14 11.18, -225.53 -3.82 M-1.57 -0.5 C-26.99 14.41, -113.84 89.85, -151.23 89.41 C-188.63 88.97, -213.73 12.49, -225.93 -3.12" stroke="#1e1e1e" stroke-width="2" fill="none"></path></g><g stroke-opacity="0.9" fill-opacity="0.9" transform="translate(450.70505539869737 222.85759503098234) rotate(0 -113.11354539143986 42.79305330344505)"><path d="M-227.25 -4.28 L-215.09 4.09 L-226.68 12.58 L-226.79 -2.89" stroke="none" stroke-width="0" fill="#1e1e1e" fill-rule="evenodd"></path><path d="M-225.93 -3.12 C-221.03 1.71, -217.31 4.41, -213.9 5.84 M-225.93 -3.12 C-224.11 -1.02, -220.61 -0.03, -213.9 5.84 M-213.9 5.84 C-217.43 6.45, -221.27 9.31, -225.05 11.86 M-213.9 5.84 C-218.21 7.59, -221.7 9.97, -225.05 11.86 M-225.05 11.86 C-225.54 8.16, -225.31 0.75, -225.93 -3.12 M-225.05 11.86 C-226 5.65, -225.74 -0.77, -225.93 -3.12 M-225.93 -3.12 C-225.93 -3.12, -225.93 -3.12, -225.93 -3.12 M-225.93 -3.12 C-225.93 -3.12, -225.93 -3.12, -225.93 -3.12" stroke="#1e1e1e" stroke-width="2" fill="none"></path></g></g><mask></mask><g stroke-opacity="0.9" fill-opacity="0.9" transform="translate(175.1889878395009 275.42583829415526) rotate(0 79.92594909667969 35)"><text x="0" y="24.528" font-family="Virgil, Segoe UI Emoji" font-size="28px" fill="#1e1e1e" text-anchor="start" style="white-space: pre;" direction="ltr" dominant-baseline="alphabetic">Trust </text><text x="0" y="59.528" font-family="Virgil, Segoe UI Emoji" font-size="28px" fill="#1e1e1e" text-anchor="start" style="white-space: pre;" direction="ltr" dominant-baseline="alphabetic">Relationship</text></g></svg>