<svg version="1.1" xmlns="http://www.w3.org/2000/svg" viewBox="0 0 1615.7230084579692 523.9381602387148" width="3231.4460169159383" height="1047.8763204774295">
  <!-- svg-source:excalidraw -->
  
  <defs>
    <style class="style-fonts">
      @font-face {
        font-family: "Virgil";
        src: url("https://excalidraw.com/Virgil.woff2");
      }
      @font-face {
        font-family: "Cascadia";
        src: url("https://excalidraw.com/Cascadia.woff2");
      }
      @font-face {
        font-family: "Assistant";
        src: url("https://excalidraw.com/Assistant-Regular.woff2");
      }
    </style>
    
  </defs>
  <rect x="0" y="0" width="1615.7230084579692" height="523.9381602387148" fill="#ffffff"></rect><g stroke-opacity="0.9" fill-opacity="0.9" stroke-linecap="round" transform="translate(502.67901926650075 10) rotate(0 210.88653092452387 48.593352553747536)"><path d="M0 0 C113.71 -0.09, 225.36 -1.42, 421.77 0 M0 0 C128.96 -0.88, 257.47 -0.74, 421.77 0 M421.77 0 C419.91 30.89, 422.94 62.88, 421.77 97.19 M421.77 0 C421.45 27.74, 420.92 56.43, 421.77 97.19 M421.77 97.19 C332.75 96.66, 242.88 95.98, 0 97.19 M421.77 97.19 C323.01 99.05, 224.39 98.14, 0 97.19 M0 97.19 C-1.18 63.72, 1.84 28.3, 0 0 M0 97.19 C0.51 65.39, 1.17 34.26, 0 0" stroke="#1e1e1e" stroke-width="2" fill="none"></path></g><g stroke-opacity="0.9" fill-opacity="0.9" transform="translate(548.0498276115914 35.42708053103706) rotate(0 155.26792907714844 22.5)"><text x="0" y="31.536" font-family="Virgil, Segoe UI Emoji" font-size="36px" fill="#1e1e1e" text-anchor="start" style="white-space: pre;" direction="ltr" dominant-baseline="alphabetic">dev-tf-runner-role</text></g><g stroke-opacity="0.9" fill-opacity="0.9" stroke-linecap="round" transform="translate(496.6125594886912 207.45282188675992) rotate(0 210.88653092452387 48.593352553747536)"><path d="M0 0 C159.61 -1.09, 318.2 -1.08, 421.77 0 M0 0 C121.23 0.02, 242.51 0.26, 421.77 0 M421.77 0 C420.96 36.8, 420.46 76.59, 421.77 97.19 M421.77 0 C421.85 36.76, 421.87 73.94, 421.77 97.19 M421.77 97.19 C302.48 97.01, 185.45 98.67, 0 97.19 M421.77 97.19 C319.87 96.29, 218.39 96.17, 0 97.19 M0 97.19 C0.65 59.66, 2.14 21.45, 0 0 M0 97.19 C0.17 63.71, 0.06 30.87, 0 0" stroke="#1e1e1e" stroke-width="2" fill="none"></path></g><g stroke-opacity="0.9" fill-opacity="0.9" transform="translate(541.9833678337823 232.87990241779698) rotate(0 162.5939178466797 22.5)"><text x="0" y="31.536" font-family="Virgil, Segoe UI Emoji" font-size="36px" fill="#1e1e1e" text-anchor="start" style="white-space: pre;" direction="ltr" dominant-baseline="alphabetic">prod-tf-runner-role</text></g><g stroke-opacity="0.9" fill-opacity="0.9" stroke-linecap="round" transform="translate(499.47845814934317 416.7514551312197) rotate(0 210.88653092452387 48.593352553747536)"><path d="M0 0 C144.06 1.49, 286.69 1.18, 421.77 0 M0 0 C144.21 -1.51, 288.18 -1.71, 421.77 0 M421.77 0 C424.25 28.89, 420.91 60.39, 421.77 97.19 M421.77 0 C423.38 27.38, 423.56 56.01, 421.77 97.19 M421.77 97.19 C334.48 98.46, 248.47 98.1, 0 97.19 M421.77 97.19 C316.05 94.84, 210.1 95.44, 0 97.19 M0 97.19 C0.21 67.8, 2.1 39.99, 0 0 M0 97.19 C0.03 62.96, 1.29 27.83, 0 0" stroke="#1e1e1e" stroke-width="2" fill="none"></path></g><g stroke-opacity="0.9" fill-opacity="0.9" transform="translate(515.476250528779 444.1249992577141) rotate(0 194.93992614746094 22.5)"><text x="0" y="31.536" font-family="Virgil, Segoe UI Emoji" font-size="36px" fill="#1e1e1e" text-anchor="start" style="white-space: pre;" direction="ltr" dominant-baseline="alphabetic">security-tf-runner-role</text></g><g stroke-linecap="round"><g stroke-opacity="0.9" fill-opacity="0.9" transform="translate(931.5233565368881 53.16891481625498) rotate(0 66.11618428899351 0)"><path d="M0 0 C30.54 2.11, 64.12 0.38, 132.23 0 M0 0 C39.13 0.58, 78.87 2.08, 132.23 0" stroke="#1e1e1e" stroke-width="2" fill="none"></path></g><g stroke-opacity="0.9" fill-opacity="0.9" transform="translate(931.5233565368881 53.16891481625498) rotate(0 66.11618428899351 0)"><path d="M133.95 -1.32 L118.19 6.44 L117.64 -4.51 L133.96 0.72" stroke="none" stroke-width="0" fill="#1e1e1e" fill-rule="evenodd"></path><path d="M132.23 0 C128.23 2.84, 126.51 3.12, 118.79 6.65 M132.23 0 C128.05 1.31, 124.37 4.42, 118.79 6.65 M118.79 6.65 C119.47 2.77, 118.94 -3.37, 118.5 -6.02 M118.79 6.65 C118.31 2.96, 118.16 -1.56, 118.5 -6.02 M118.5 -6.02 C123.08 -2.92, 127.94 -0.6, 132.23 0 M118.5 -6.02 C123.08 -3.58, 127.05 -2.23, 132.23 0 M132.23 0 C132.23 0, 132.23 0, 132.23 0 M132.23 0 C132.23 0, 132.23 0, 132.23 0" stroke="#1e1e1e" stroke-width="2" fill="none"></path></g></g><mask></mask><g stroke-opacity="0.9" fill-opacity="0.9" transform="translate(1092.9624602708682 44.51253148971227) rotate(0 216.28793334960938 22.5)"><text x="0" y="31.536" font-family="Virgil, Segoe UI Emoji" font-size="36px" fill="#1e1e1e" text-anchor="start" style="white-space: pre;" direction="ltr" dominant-baseline="alphabetic">*/* on dev AWS Account</text></g><g stroke-linecap="round"><g stroke-opacity="0.9" fill-opacity="0.9" transform="translate(929.2975125673538 247.91143618614296) rotate(0 66.11618428899351 0)"><path d="M0 0 C51.49 0.9, 104.98 0.52, 132.23 0 M0 0 C29.64 -2.01, 59.59 -0.33, 132.23 0" stroke="#1e1e1e" stroke-width="2" fill="none"></path></g><g stroke-opacity="0.9" fill-opacity="0.9" transform="translate(929.2975125673538 247.91143618614296) rotate(0 66.11618428899351 0)"><path d="M133.93 -0.85 L119.41 6.66 L118.79 -7.17 L130.77 0.42" stroke="none" stroke-width="0" fill="#1e1e1e" fill-rule="evenodd"></path><path d="M132.23 0 C126.16 2.94, 121.59 5.11, 118.58 6.21 M132.23 0 C129.01 0.95, 126.08 3.61, 118.58 6.21 M118.58 6.21 C119.62 1.69, 119.62 -3.62, 118.7 -6.47 M118.58 6.21 C118.35 1.71, 118.73 -2.14, 118.7 -6.47 M118.7 -6.47 C123.98 -5.8, 127.98 -2.07, 132.23 0 M118.7 -6.47 C122.3 -5.08, 125.22 -3.69, 132.23 0 M132.23 0 C132.23 0, 132.23 0, 132.23 0 M132.23 0 C132.23 0, 132.23 0, 132.23 0" stroke="#1e1e1e" stroke-width="2" fill="none"></path></g></g><mask></mask><g stroke-opacity="0.9" fill-opacity="0.9" transform="translate(1090.7366163013348 239.2550528596039) rotate(0 223.61395263671875 22.5)"><text x="0" y="31.536" font-family="Virgil, Segoe UI Emoji" font-size="36px" fill="#1e1e1e" text-anchor="start" style="white-space: pre;" direction="ltr" dominant-baseline="alphabetic">*/* on prod AWS Account</text></g><g stroke-linecap="round"><g stroke-opacity="0.9" fill-opacity="0.9" transform="translate(932.3640438841444 464.82810884473656) rotate(0 66.11618428899351 0)"><path d="M0 0 C48.57 2.8, 99.07 0.33, 132.23 0 M0 0 C50.18 0.75, 101.38 0.73, 132.23 0" stroke="#1e1e1e" stroke-width="2" fill="none"></path></g><g stroke-opacity="0.9" fill-opacity="0.9" transform="translate(932.3640438841444 464.82810884473656) rotate(0 66.11618428899351 0)"><path d="M131.13 -1.57 L118.18 6.36 L118.41 -6.06 L130.66 -0.03" stroke="none" stroke-width="0" fill="#1e1e1e" fill-rule="evenodd"></path><path d="M132.23 0 C126.02 3.5, 121.22 4.13, 118.73 6.53 M132.23 0 C126.72 2.83, 121.99 5.32, 118.73 6.53 M118.73 6.53 C118.4 0.73, 118.22 -3.06, 118.55 -6.15 M118.73 6.53 C118.4 1.68, 118.44 -3.12, 118.55 -6.15 M118.55 -6.15 C121.38 -3.59, 126.38 -1.58, 132.23 0 M118.55 -6.15 C121.69 -4.11, 125.17 -3.36, 132.23 0 M132.23 0 C132.23 0, 132.23 0, 132.23 0 M132.23 0 C132.23 0, 132.23 0, 132.23 0" stroke="#1e1e1e" stroke-width="2" fill="none"></path></g></g><mask></mask><g stroke-opacity="0.9" fill-opacity="0.9" transform="translate(1093.8031476181254 456.1717255181975) rotate(0 255.95993041992188 22.5)"><text x="0" y="31.536" font-family="Virgil, Segoe UI Emoji" font-size="36px" fill="#1e1e1e" text-anchor="start" style="white-space: pre;" direction="ltr" dominant-baseline="alphabetic">*/* on security AWS Account</text></g><g stroke-opacity="0.9" fill-opacity="0.9" stroke-linecap="round" transform="translate(10 189.3871322141058) rotate(0 120.57547988379815 85.78568440471645)"><path d="M71.52 7.33 C83.21 1.91, 98.72 0.14, 113.14 -0.52 C127.55 -1.18, 144.08 0.12, 158 3.36 C171.91 6.6, 185.47 12.32, 196.63 18.91 C207.78 25.49, 217.59 33.72, 224.92 42.86 C232.26 51.99, 238.34 63.54, 240.64 73.74 C242.94 83.94, 241.94 94.09, 238.71 104.04 C235.48 113.99, 229.32 124.93, 221.27 133.47 C213.23 142, 202.36 149.25, 190.44 155.23 C178.51 161.2, 164.09 166.74, 149.74 169.29 C135.39 171.84, 118.95 171.8, 104.35 170.52 C89.74 169.24, 74.91 166.55, 62.12 161.6 C49.33 156.66, 36.78 148.67, 27.58 140.84 C18.38 133.01, 11.48 124.29, 6.91 114.64 C2.33 104.99, -0.46 93.48, 0.13 82.92 C0.72 72.36, 4.65 60.74, 10.46 51.29 C16.28 41.84, 22.88 34.15, 35.01 26.22 C47.13 18.3, 72.98 7.59, 83.22 3.76 C93.46 -0.06, 95.96 1.72, 96.46 3.26 M165.86 7.59 C179.7 10.27, 194.36 18.14, 205.12 25.08 C215.88 32.01, 224.52 39.83, 230.43 49.2 C236.33 58.57, 239.73 70.94, 240.55 81.3 C241.37 91.66, 239.52 101.7, 235.35 111.37 C231.17 121.03, 224.64 131.42, 215.5 139.29 C206.36 147.16, 193.11 153.2, 180.53 158.58 C167.94 163.96, 154.09 169.67, 140 171.56 C125.9 173.45, 110.33 172.09, 95.96 169.92 C81.59 167.76, 66.04 164.25, 53.8 158.56 C41.55 152.87, 30.71 144.26, 22.48 135.79 C14.25 127.31, 7.83 117.5, 4.4 107.72 C0.96 97.94, 0.37 87.48, 1.85 77.1 C3.34 66.72, 6.88 55.02, 13.3 45.44 C19.72 35.86, 29.48 26.36, 40.38 19.61 C51.28 12.86, 65.02 8.21, 78.69 4.94 C92.37 1.68, 107.61 -0.49, 122.44 0.01 C137.26 0.51, 160.21 6.79, 167.64 7.94 C175.07 9.09, 167.97 5.87, 167.01 6.91" stroke="#1e1e1e" stroke-width="2" fill="none"></path></g><g stroke-opacity="0.9" fill-opacity="0.9" transform="translate(41.26260220872928 236.73828229903302) rotate(0 98.65797424316406 45)"><text x="0" y="31.536" font-family="Virgil, Segoe UI Emoji" font-size="36px" fill="#1e1e1e" text-anchor="start" style="white-space: pre;" direction="ltr" dominant-baseline="alphabetic">Terraform </text><text x="0" y="76.536" font-family="Virgil, Segoe UI Emoji" font-size="36px" fill="#1e1e1e" text-anchor="start" style="white-space: pre;" direction="ltr" dominant-baseline="alphabetic">on GH CI</text></g><g stroke-linecap="round"><g stroke-opacity="0.9" fill-opacity="0.9" transform="translate(253.2447206131892 267.4135578423011) rotate(0 123.5415763984206 -98.85057019344094)"><path d="M0 0 C60.38 -47.55, 119.67 -96.01, 247.08 -197.7 M0 0 C76.62 -60.93, 151.3 -121.24, 247.08 -197.7" stroke="#1e1e1e" stroke-width="2" fill="none"></path></g><g stroke-opacity="0.9" fill-opacity="0.9" transform="translate(253.2447206131892 267.4135578423011) rotate(0 123.5415763984206 -98.85057019344094)"><path d="M245.38 -199.59 L241.43 -184.46 L232.28 -192.7 L248.54 -197.29" stroke="none" stroke-width="0" fill="#1e1e1e" fill-rule="evenodd"></path><path d="M247.08 -197.7 C245.6 -193.34, 243.01 -190.39, 240.43 -184.26 M247.08 -197.7 C245.42 -193.39, 242.53 -189.19, 240.43 -184.26 M240.43 -184.26 C238.22 -186.57, 236.35 -187.51, 232.51 -194.16 M240.43 -184.26 C238.01 -187.39, 236.48 -189.04, 232.51 -194.16 M232.51 -194.16 C239.02 -195.38, 242.51 -197.31, 247.08 -197.7 M232.51 -194.16 C236.36 -194.7, 239.74 -195.59, 247.08 -197.7 M247.08 -197.7 C247.08 -197.7, 247.08 -197.7, 247.08 -197.7 M247.08 -197.7 C247.08 -197.7, 247.08 -197.7, 247.08 -197.7" stroke="#1e1e1e" stroke-width="2" fill="none"></path></g></g><mask></mask><g stroke-linecap="round"><g stroke-opacity="0.9" fill-opacity="0.9" transform="translate(247.56136856686226 268.54050490629015) rotate(0 123.65673620432608 -3.5101295405420387)"><path d="M0 0 C88.84 -1.37, 178.07 -5.44, 247.31 -7.02 M0 0 C91.27 -0.02, 181.63 -3.24, 247.31 -7.02" stroke="#1e1e1e" stroke-width="2" fill="none"></path></g><g stroke-opacity="0.9" fill-opacity="0.9" transform="translate(247.56136856686226 268.54050490629015) rotate(0 123.65673620432608 -3.5101295405420387)"><path d="M248.5 -8.66 L232.73 -0.64 L234.59 -13.93 L248.75 -7.79" stroke="none" stroke-width="0" fill="#1e1e1e" fill-rule="evenodd"></path><path d="M247.31 -7.02 C242 -4.04, 236.97 -2.91, 234.04 -0.03 M247.31 -7.02 C243.01 -3.9, 237.86 -1.92, 234.04 -0.03 M234.04 -0.03 C234.82 -3.44, 233.93 -6.33, 233.43 -12.69 M234.04 -0.03 C233.58 -3.76, 233.35 -6.27, 233.43 -12.69 M233.43 -12.69 C236 -11.37, 239.61 -8.73, 247.31 -7.02 M233.43 -12.69 C236.92 -10.95, 241.94 -10.11, 247.31 -7.02 M247.31 -7.02 C247.31 -7.02, 247.31 -7.02, 247.31 -7.02 M247.31 -7.02 C247.31 -7.02, 247.31 -7.02, 247.31 -7.02" stroke="#1e1e1e" stroke-width="2" fill="none"></path></g></g><mask></mask><g stroke-linecap="round"><g stroke-opacity="0.9" fill-opacity="0.9" transform="translate(253.87614021054924 268.2334531050401) rotate(0 122.05701032005504 95.22710956219998)"><path d="M0 0 C70.54 55.65, 141.47 111.1, 244.11 190.45 M0 0 C56.59 44.91, 113.11 88.25, 244.11 190.45" stroke="#1e1e1e" stroke-width="2" fill="none"></path></g><g stroke-opacity="0.9" fill-opacity="0.9" transform="translate(253.87614021054924 268.2334531050401) rotate(0 122.05701032005504 95.22710956219998)"><path d="M242.8 190.7 L228.33 186.69 L235.92 178.11 L243.84 189.87" stroke="none" stroke-width="0" fill="#1e1e1e" fill-rule="evenodd"></path><path d="M244.11 190.45 C239.63 189.48, 235.76 188.9, 229.49 187.1 M244.11 190.45 C240.41 189.41, 238.09 188.63, 229.49 187.1 M229.49 187.1 C231.53 184.59, 233.72 183.12, 237.28 177.1 M229.49 187.1 C232.28 183.37, 235.28 179.82, 237.28 177.1 M237.28 177.1 C240.54 180.19, 241.66 185.94, 244.11 190.45 M237.28 177.1 C239.47 182.31, 242.69 186.84, 244.11 190.45 M244.11 190.45 C244.11 190.45, 244.11 190.45, 244.11 190.45 M244.11 190.45 C244.11 190.45, 244.11 190.45, 244.11 190.45" stroke="#1e1e1e" stroke-width="2" fill="none"></path></g></g><mask></mask></svg>